<?xml version="1.0" encoding="utf-8"?>
<!-- Generator: Adobe Illustrator 24.0.1, SVG Export Plug-In . SVG Version: 6.00 Build 0)  -->
<svg version="1.1" id="Layer_1" xmlns="http://www.w3.org/2000/svg" xmlns:xlink="http://www.w3.org/1999/xlink" x="0px" y="0px"
	 viewBox="0 0 134 134" style="enable-background:new 0 0 134 134;" xml:space="preserve">
<style type="text/css">
	.st0{fill:#CA0088;}
	.st1{enable-background:new    ;}
	.st2{fill:#FFFFFF;}
</style>
<g transform="translate(-1681 -675)">
	<circle class="st0" cx="1748" cy="742" r="67"/>
	<g class="st1">
		<path class="st2" d="M1724.5,738.3c-0.1,0.3-0.2,0.6-0.4,0.9c-0.2,0.3-0.4,0.5-0.5,0.8c-0.1,0.2-0.3,0.4-0.5,0.5s-0.3,0.3-0.4,0.4
			c-0.2,0.2-0.4,0.4-0.6,0.5c-0.2,0.1-0.4,0.2-0.6,0.3c-0.2,0.1-0.4,0.2-0.5,0.3s-0.3,0.1-0.5,0.1c-0.3,0-0.7,0-1,0
			c-0.3,0-0.7,0-1,0c-0.2,0-0.3,0-0.5,0c-0.2,0-0.3,0-0.5,0c-0.3,0-0.7,0-1,0.1s-0.7,0-1,0c-0.3,0-0.5,0-0.9-0.1
			c-0.2,0-0.4-0.1-0.6-0.1s-0.5,0-0.7,0c-0.2,0-0.4-0.1-0.6-0.2c-0.2-0.1-0.3-0.2-0.4-0.4c0-0.1-0.1-0.2-0.1-0.2v-0.2
			c0-0.2,0-0.4,0-0.6c0-0.2,0-0.4,0-0.6c0-0.2,0-0.5,0-0.7c0-0.2,0-0.5,0-0.7c0-0.2,0-0.3,0-0.5c0-0.2,0-0.3,0-0.5
			c0-0.1,0-0.2,0-0.3c0-0.1,0-0.2,0-0.3c0-0.4,0-0.8,0-1.2c0-0.4,0-0.8,0-1.2c0-0.1,0-0.3,0-0.4c0-0.1,0-0.2,0-0.4
			c0-0.1,0-0.2,0-0.3c0-0.1,0-0.2,0-0.3c0-0.2,0-0.5,0-0.7s0-0.5,0-0.7c0-0.1,0-0.3,0-0.4s0-0.3,0-0.4s0-0.3-0.1-0.4
			c0-0.1-0.1-0.2-0.1-0.4s0-0.2,0.1-0.3c0-0.1,0.1-0.2,0.1-0.3c0-0.1,0-0.2,0-0.3c0-0.1,0-0.2-0.1-0.3l-0.1-0.8c0-0.3,0-0.5,0-0.8
			v-2.4c0-0.5,0.1-0.8,0.3-0.9s0.5-0.2,1-0.2c0.1,0,0.2,0,0.2,0s0.1,0,0.2,0c0.1,0,0.2,0,0.3-0.1c0.1,0,0.2-0.1,0.3-0.1h0.5
			c0.4,0,0.8,0,1.2-0.1c0.4-0.1,0.8-0.1,1.2-0.1c0.4,0,0.8,0,1.2,0.1c0.4,0.1,0.8,0.1,1.2,0.1c0.3,0,0.6,0.1,0.9,0.1
			c0.3,0.1,0.6,0.1,0.8,0.3c0,0,0.1,0.1,0.2,0.1c0.1,0.1,0.2,0.2,0.4,0.2c0.1,0.1,0.2,0.2,0.4,0.3c0.1,0.1,0.2,0.1,0.2,0.1
			c0.1,0.1,0.3,0.3,0.4,0.4c0.1,0.1,0.2,0.3,0.4,0.4s0.2,0.3,0.3,0.4c0.1,0.2,0.1,0.3,0.2,0.5c0.1,0.3,0.3,0.6,0.4,0.9
			c0.1,0.3,0.2,0.6,0.2,1c0,0.2,0,0.5-0.1,0.7s-0.1,0.4-0.1,0.7c-0.1,0.3-0.1,0.7-0.3,0.9c-0.1,0.3-0.3,0.5-0.5,0.8
			c-0.1,0.1-0.2,0.2-0.2,0.3c0,0.1,0.1,0.2,0.2,0.3c0,0.1,0.1,0.1,0.1,0.1c0.1,0,0.1,0.1,0.1,0.1c0.3,0.5,0.6,1,0.9,1.5
			c0.3,0.5,0.4,1.1,0.4,1.7C1724.9,736.8,1724.8,737.6,1724.5,738.3z M1720.8,735.5c0-0.3-0.2-0.6-0.5-0.9c-0.1-0.1-0.3-0.2-0.6-0.3
			s-0.5-0.1-0.6-0.2c-0.2,0-0.4-0.1-0.6-0.1c-0.2,0-0.4-0.1-0.6-0.1c-0.2,0-0.5,0-0.7,0c-0.2,0-0.5,0.1-0.7,0.1
			c-0.1,0-0.2,0-0.2,0.1c0,0,0,0.1-0.1,0.2v1.5c0,0.8,0,1.5,0.1,2.3c0,0.1,0.1,0.2,0.1,0.3c0.1,0,0.1,0.1,0.3,0.1c0.2,0,0.4,0,0.6,0
			s0.6,0,0.9,0s0.6,0,0.8-0.1c0.3,0,0.5-0.1,0.6-0.1c0.2-0.1,0.4-0.2,0.6-0.4c0.2-0.2,0.3-0.4,0.5-0.6c0.1-0.2,0.2-0.4,0.2-0.6
			C1720.8,736.2,1720.8,735.8,1720.8,735.5z M1720.1,728.8c0-0.1,0-0.2-0.1-0.3l-0.1-0.1c-0.2-0.2-0.4-0.4-0.6-0.4s-0.4-0.1-0.7-0.1
			h-1c-0.4,0-0.7,0-1,0.1c-0.1,0.1-0.1,0.1-0.2,0.1c-0.1,0.1-0.1,0.2-0.1,0.4c0,0.2,0,0.4,0,0.5v0.5v0.5v0.2c0,0.1,0,0.2,0.1,0.2
			c0,0,0.1,0.1,0.3,0.1c0.2,0,0.4,0.1,0.6,0.1s0.4,0,0.6,0c0.3,0,0.6,0,0.8-0.1c0.3,0,0.5-0.1,0.7-0.2c0.2-0.1,0.4-0.3,0.5-0.5
			s0.2-0.5,0.2-0.8C1720.1,729,1720.1,728.9,1720.1,728.8z"/>
		<path class="st2" d="M1745.9,733.3c0,0.5-0.1,0.8-0.1,1.1c0,0.1,0,0.2-0.1,0.3s-0.1,0.2-0.1,0.2c0,0.1,0,0.2-0.1,0.3
			s-0.1,0.3-0.1,0.4s-0.1,0.3-0.2,0.4s-0.1,0.2-0.2,0.3c-0.1,0.2-0.3,0.4-0.3,0.5c-0.1,0.2-0.2,0.4-0.2,0.6l-0.1,0.2
			c-0.4,0.6-0.9,1.2-1.4,1.7c-0.5,0.5-1.1,0.9-1.8,1.3c-0.1,0.1-0.2,0.1-0.4,0.2s-0.4,0.2-0.6,0.3c-0.2,0.1-0.4,0.2-0.6,0.3
			c-0.2,0.1-0.3,0.1-0.4,0.2l-1.2,0.2c-0.4,0.1-0.8,0.1-1.2,0.1c-0.2,0-0.4,0-0.5,0c-0.2,0-0.4,0-0.5-0.1c-0.3-0.1-0.7-0.1-1-0.2
			c-0.3-0.1-0.6-0.2-1-0.2c-0.5-0.1-0.9-0.3-1.3-0.4c-0.4-0.2-0.7-0.3-1.1-0.5c-0.3-0.2-0.7-0.4-1-0.7c-0.3-0.3-0.7-0.5-1-0.8
			c-0.2-0.1-0.3-0.3-0.4-0.4c-0.1-0.1-0.3-0.3-0.4-0.5c-0.1-0.1-0.1-0.3-0.2-0.4c-0.1-0.1-0.2-0.2-0.3-0.3c-0.2-0.3-0.3-0.6-0.4-1
			s-0.2-0.7-0.3-1.1c0-0.1,0-0.2-0.1-0.4c0-0.2-0.1-0.4-0.1-0.6c0-0.2-0.1-0.4-0.1-0.6c0-0.2,0-0.3,0-0.4c0-0.3,0-0.6,0.1-0.9
			l0.1-0.9c0-0.2,0-0.4,0.1-0.5c0.1-0.1,0.2-0.3,0.2-0.4c0.2-0.6,0.4-1.2,0.7-1.9s0.6-1.2,1.1-1.7l1.3-1.2c0.1-0.1,0.1-0.1,0.1-0.2
			c0-0.1,0.1-0.1,0.2-0.2c0.2-0.1,0.4-0.3,0.6-0.4c0.2-0.1,0.4-0.2,0.6-0.3c0.1-0.1,0.3-0.1,0.4-0.2c0.1,0,0.3-0.1,0.4-0.1
			c0.4-0.2,0.8-0.3,1.1-0.4c0.3-0.1,0.7-0.2,1.2-0.2c0.2,0,0.4,0,0.6,0h0.7c0.1,0,0.2,0,0.4,0c0.1,0,0.2,0,0.4,0c0.1,0,0.2,0,0.2,0
			c0.1,0,0.2,0,0.2,0c0.4,0,0.7,0.1,1.1,0.2c0.3,0.1,0.6,0.2,0.9,0.2s0.6,0.1,0.9,0.2c0.2,0.1,0.4,0.2,0.5,0.2s0.4,0.2,0.5,0.3
			c0.3,0.2,0.6,0.4,0.8,0.6s0.5,0.4,0.7,0.7c0,0,0.1,0.1,0.1,0.1c0,0,0,0,0.1,0.1c0.2,0.2,0.4,0.4,0.6,0.6c0.1,0.2,0.3,0.5,0.5,0.7
			c0.1,0.2,0.2,0.3,0.3,0.5c0.1,0.2,0.1,0.3,0.2,0.5c0.2,0.4,0.4,0.8,0.5,1.1c0.1,0.3,0.3,0.7,0.3,1.2c0,0.2,0.1,0.4,0.1,0.6
			s0.1,0.4,0.1,0.6C1745.9,732.5,1745.9,732.9,1745.9,733.3z M1741.1,731.7c-0.1-0.4-0.2-0.7-0.3-0.9c-0.1-0.3-0.3-0.7-0.5-0.9
			c-0.2-0.3-0.5-0.5-0.7-0.8c-0.1-0.1-0.2-0.2-0.5-0.3c-0.2-0.1-0.5-0.2-0.7-0.3c-0.3-0.1-0.5-0.2-0.8-0.2c-0.2-0.1-0.4-0.1-0.5-0.1
			h-0.8c-0.2,0-0.4,0-0.5,0c-0.1,0-0.3,0.1-0.4,0.1c-0.1,0-0.2,0.1-0.3,0.1c-0.1,0-0.2,0.1-0.3,0.1c-0.2,0-0.3,0.1-0.4,0.1
			c-0.1,0.1-0.2,0.1-0.3,0.2c-0.1,0.1-0.3,0.2-0.5,0.3c-0.2,0.1-0.3,0.2-0.5,0.3c-0.2,0.2-0.4,0.4-0.5,0.6s-0.3,0.5-0.4,0.7
			c-0.1,0.2-0.2,0.3-0.2,0.6s-0.1,0.4-0.2,0.7c-0.1,0.2-0.1,0.5-0.1,0.7c0,0.2-0.1,0.4-0.1,0.6c0,0.2,0,0.5,0.1,0.9s0.2,0.6,0.3,0.8
			c0.2,0.3,0.4,0.6,0.7,0.8s0.7,0.6,1.1,0.8c0.4,0.2,0.8,0.4,1.3,0.6c0.4,0.2,0.8,0.2,1.1,0.2c0.1,0,0.2,0,0.3,0
			c0.1,0,0.2,0,0.3-0.1l1.4-0.1c0.1,0,0.2-0.1,0.4-0.1s0.3-0.1,0.5-0.2s0.3-0.2,0.4-0.2c0.1-0.1,0.2-0.2,0.3-0.2
			c0.1-0.1,0.2-0.2,0.3-0.4s0.2-0.3,0.3-0.4c0.1-0.1,0.1-0.1,0.2-0.2c0.1,0,0.1-0.1,0.2-0.2c0.2-0.4,0.4-0.8,0.5-1.3
			c0.1-0.5,0.2-1,0.2-1.4C1741.2,732.4,1741.2,732.1,1741.1,731.7z"/>
		<path class="st2" d="M1767.7,733.3c0,0.5-0.1,0.8-0.1,1.1c0,0.1,0,0.2-0.1,0.3s-0.1,0.2-0.1,0.2c0,0.1,0,0.2-0.1,0.3
			s-0.1,0.3-0.1,0.4s-0.1,0.3-0.2,0.4s-0.1,0.2-0.2,0.3c-0.1,0.2-0.3,0.4-0.3,0.5c-0.1,0.2-0.2,0.4-0.2,0.6l-0.1,0.2
			c-0.4,0.6-0.9,1.2-1.4,1.7s-1.1,0.9-1.8,1.3c-0.1,0.1-0.2,0.1-0.4,0.2s-0.4,0.2-0.6,0.3c-0.2,0.1-0.4,0.2-0.6,0.3
			c-0.2,0.1-0.3,0.1-0.4,0.2l-1.2,0.2c-0.4,0.1-0.8,0.1-1.2,0.1c-0.2,0-0.4,0-0.5,0c-0.2,0-0.4,0-0.5-0.1c-0.3-0.1-0.7-0.1-1-0.2
			s-0.6-0.2-1-0.2c-0.5-0.1-0.9-0.3-1.3-0.4c-0.4-0.2-0.7-0.3-1.1-0.5c-0.3-0.2-0.7-0.4-1-0.7c-0.3-0.3-0.7-0.5-1-0.8
			c-0.2-0.1-0.3-0.3-0.4-0.4c-0.1-0.1-0.3-0.3-0.4-0.5c-0.1-0.1-0.1-0.3-0.2-0.4c-0.1-0.1-0.2-0.2-0.3-0.3c-0.2-0.3-0.3-0.6-0.4-1
			s-0.2-0.7-0.3-1.1c0-0.1,0-0.2-0.1-0.4c0-0.2-0.1-0.4-0.1-0.6c0-0.2-0.1-0.4-0.1-0.6c0-0.2,0-0.3,0-0.4c0-0.3,0-0.6,0.1-0.9
			l0.1-0.9c0-0.2,0-0.4,0.1-0.5c0.1-0.1,0.2-0.3,0.2-0.4c0.2-0.6,0.4-1.2,0.7-1.9s0.6-1.2,1.1-1.7l1.3-1.2c0.1-0.1,0.1-0.1,0.1-0.2
			c0-0.1,0.1-0.1,0.2-0.2c0.2-0.1,0.4-0.3,0.6-0.4c0.2-0.1,0.4-0.2,0.6-0.3c0.1-0.1,0.3-0.1,0.4-0.2c0.1,0,0.3-0.1,0.4-0.1
			c0.4-0.2,0.8-0.3,1.1-0.4c0.3-0.1,0.7-0.2,1.2-0.2c0.2,0,0.4,0,0.6,0h0.7c0.1,0,0.2,0,0.4,0c0.1,0,0.2,0,0.4,0c0.1,0,0.2,0,0.2,0
			c0.1,0,0.2,0,0.2,0c0.4,0,0.7,0.1,1.1,0.2c0.3,0.1,0.6,0.2,0.9,0.2s0.6,0.1,0.9,0.2c0.2,0.1,0.4,0.2,0.5,0.2
			c0.2,0.1,0.4,0.2,0.5,0.3c0.3,0.2,0.6,0.4,0.8,0.6s0.5,0.4,0.7,0.7c0,0,0.1,0.1,0.1,0.1c0,0,0,0,0.1,0.1c0.2,0.2,0.4,0.4,0.6,0.6
			c0.1,0.2,0.3,0.5,0.5,0.7c0.1,0.2,0.2,0.3,0.3,0.5c0.1,0.2,0.1,0.3,0.2,0.5c0.2,0.4,0.4,0.8,0.5,1.1c0.1,0.3,0.3,0.7,0.3,1.2
			c0,0.2,0.1,0.4,0.1,0.6s0.1,0.4,0.1,0.6C1767.8,732.5,1767.8,732.9,1767.7,733.3z M1762.9,731.7c-0.1-0.4-0.2-0.7-0.3-0.9
			c-0.1-0.3-0.3-0.7-0.5-0.9c-0.2-0.3-0.5-0.5-0.7-0.8c-0.1-0.1-0.2-0.2-0.5-0.3c-0.2-0.1-0.5-0.2-0.7-0.3c-0.3-0.1-0.5-0.2-0.8-0.2
			c-0.2-0.1-0.4-0.1-0.5-0.1h-0.8c-0.2,0-0.4,0-0.5,0c-0.1,0-0.3,0.1-0.4,0.1c-0.1,0-0.2,0.1-0.3,0.1c-0.1,0-0.2,0.1-0.3,0.1
			c-0.2,0-0.3,0.1-0.4,0.1c-0.1,0.1-0.2,0.1-0.3,0.2c-0.1,0.1-0.3,0.2-0.5,0.3s-0.3,0.2-0.5,0.3c-0.2,0.2-0.4,0.4-0.5,0.6
			s-0.3,0.5-0.4,0.7c-0.1,0.2-0.2,0.3-0.2,0.6s-0.1,0.4-0.2,0.7c-0.1,0.2-0.1,0.5-0.1,0.7c0,0.2-0.1,0.4-0.1,0.6
			c0,0.2,0,0.5,0.1,0.9s0.2,0.6,0.3,0.8c0.2,0.3,0.4,0.6,0.7,0.8s0.7,0.6,1.1,0.8c0.4,0.2,0.8,0.4,1.3,0.6c0.4,0.2,0.8,0.2,1.1,0.2
			c0.1,0,0.2,0,0.3,0c0.1,0,0.2,0,0.3-0.1l1.4-0.1c0.1,0,0.2-0.1,0.4-0.1c0.1-0.1,0.3-0.1,0.5-0.2c0.2-0.1,0.3-0.2,0.4-0.2
			c0.1-0.1,0.2-0.2,0.3-0.2c0.1-0.1,0.2-0.2,0.3-0.4s0.2-0.3,0.3-0.4c0.1-0.1,0.1-0.1,0.2-0.2c0.1,0,0.1-0.1,0.2-0.2
			c0.2-0.4,0.4-0.8,0.5-1.3c0.1-0.5,0.2-1,0.2-1.4C1763.1,732.4,1763,732.1,1762.9,731.7z"/>
		<path class="st2" d="M1784.3,724.8c-0.2,0.2-0.3,0.4-0.4,0.5c-0.7,1-1.4,2-2,3c-0.2,0.3-0.4,0.6-0.5,0.9c-0.2,0.3-0.3,0.6-0.5,0.9
			l-0.7,1c0.1,0.4,0.3,0.8,0.4,1.1c0.1,0.4,0.2,0.7,0.4,1.1c0.1,0.1,0.2,0.4,0.3,0.8c0.2,0.4,0.4,0.9,0.6,1.4s0.5,1.1,0.7,1.8
			s0.5,1.2,0.7,1.8c0.2,0.6,0.4,1.1,0.5,1.5s0.2,0.8,0.2,0.9c0,0.1,0,0.2-0.1,0.2c-0.1,0.1-0.2,0.1-0.3,0.1c-0.1,0-0.2,0-0.3,0h-0.3
			c-0.1,0-0.2,0-0.3,0s-0.2,0-0.3,0c-0.2,0-0.5,0-0.7,0c-0.2,0-0.5,0-0.7,0c-0.1,0-0.2,0-0.3,0s-0.2,0-0.3,0c-0.3,0-0.4,0-0.5-0.2
			s-0.1-0.3-0.2-0.5l-0.9-2.4c-0.2-0.6-0.5-1.1-0.7-1.7s-0.5-1.1-0.7-1.7c-0.2,0.4-0.5,0.8-0.7,1.2c-0.3,0.4-0.5,0.8-0.8,1.2
			c0,0.6,0,1.1,0,1.6c0,0.5,0,1.1,0,1.6c0,0.1,0,0.1,0,0.2c0,0.1,0,0.1,0,0.2c0,0.2-0.1,0.3-0.2,0.4c-0.1,0-0.3,0.1-0.5,0.1
			c-0.1,0-0.1,0-0.2,0s-0.1,0-0.2,0c-0.2,0-0.5,0-0.7,0h-0.7c-0.3,0-0.7,0-1-0.1c-0.3-0.1-0.5-0.1-0.6-0.2c-0.1-0.1-0.1-0.3-0.2-0.6
			c0-0.3-0.1-0.6-0.1-0.9v-0.9c0-0.2,0-0.3,0-0.5c0-0.2,0-0.3,0-0.5c0-0.9,0-1.9,0-2.8c0-0.9,0-1.9,0-2.8c0-0.4,0-0.8,0-1.2
			s0-0.8,0-1.2c0-0.3,0-0.7,0-1c0-0.3,0-0.7,0-1c0-0.2,0-0.4,0-0.6c0-0.2,0-0.4,0-0.6c0-0.1,0-0.2,0-0.3c0-0.1,0-0.2,0-0.3
			c0-0.2,0-0.5,0-0.7c0-0.2,0-0.5,0-0.7c0-0.2,0-0.4,0-0.6c0-0.1,0.1-0.2,0.1-0.3s0.2-0.1,0.3-0.1c0.1,0,0.3,0,0.5,0
			c0.6-0.1,1.2-0.1,1.8-0.1c0.1,0,0.1,0,0.2,0c0.1,0,0.1,0,0.2,0h0.2c0.3,0,0.5,0.1,0.7,0.2s0.2,0.3,0.2,0.6c0,0.5,0,0.9,0,1.4
			c0,0.5,0,0.9,0,1.4c0,0.5,0,0.9,0,1.3c0,0.4,0,0.9,0.1,1.3c0.5-0.7,0.9-1.3,1.3-2c0.4-0.6,0.8-1.3,1.3-2l0.4-0.6
			c0.3-0.4,0.6-0.8,0.8-1.2c0.2-0.3,0.4-0.5,0.8-0.6c0.2,0,0.3,0,0.5,0s0.3,0,0.5,0h2c0.1,0,0.2,0,0.4,0s0.2,0,0.4,0
			c0.1,0,0.3,0,0.5,0.1c0.2,0,0.2,0.1,0.2,0.3S1784.4,724.6,1784.3,724.8z"/>
	</g>
	<g class="st1">
		<path class="st2" d="M1731,755.8c0,0.2,0,0.3,0,0.5c0,0.1,0,0.2,0,0.3c0,0.1,0,0.2,0,0.3c0,0.1,0,0.1,0,0.2s0,0.1,0,0.2
			c0,0.1,0,0.2,0,0.4s0,0.2,0,0.4c0,0.3,0,0.6,0,1c0,0.3,0,0.6,0,0.9c0,0.1,0,0.3,0,0.4c0,0.1,0,0.3,0,0.4c0,0.1,0,0.2,0,0.4
			c0,0.1,0,0.2,0,0.4v1.5c0,0.2,0,0.4,0,0.5c0,0.2,0,0.4,0,0.5c0,0.1,0,0.2,0,0.4c0,0.2,0,0.3,0,0.5c0,0.2,0,0.3,0,0.5
			c0,0.1,0,0.2-0.1,0.3s-0.1,0.1-0.3,0.2c-0.2,0.1-0.4,0.1-0.7,0.1c-0.3,0-0.6,0-0.7,0c-0.2,0-0.3,0-0.5,0c-0.2,0-0.3,0-0.5,0
			c-0.2,0-0.4,0-0.6,0c-0.2,0-0.4,0-0.6,0c-0.1,0-0.2,0-0.3-0.1c0,0-0.1-0.1-0.1-0.3c-0.1-0.3-0.1-0.6-0.1-0.8c0-0.2,0-0.3,0-0.5
			c0-0.2,0-0.3,0-0.5c0-0.4,0-0.8,0-1.1c0-0.4,0-0.7,0-1.1c0-0.4,0-0.8,0-1.2c0-0.4,0-0.8,0-1.2c0-0.1,0-0.3,0-0.5
			c0-0.2,0-0.3,0-0.5s-0.1-0.2-0.2-0.2c-0.1,0-0.2,0-0.2,0s-0.2,0-0.2,0c-0.1,0-0.3,0-0.4,0s-0.3,0-0.4,0s-0.3,0-0.4,0s-0.3,0-0.4,0
			c-0.4,0-0.7,0-1.1,0c-0.4,0-0.7,0-1.1,0c-0.2,0-0.5,0-0.7,0s-0.4,0-0.7,0c-0.1,0-0.2,0-0.2,0.1c-0.1,0-0.1,0.1-0.1,0.2
			c0,0.2,0,0.3,0,0.5c0,0.2,0,0.4,0,0.5c0,0.2,0,0.4,0,0.6c0,0.2,0,0.4,0,0.6c0,0.2,0,0.3,0.1,0.5s0.1,0.3,0.1,0.5
			c0,0.1,0,0.3,0,0.4c0,0.1,0,0.3,0,0.5c0,0.5,0,1.1,0,1.7c0,0.6,0,1.1-0.1,1.7c0,0.1-0.1,0.2-0.1,0.3c-0.1,0.1-0.1,0.1-0.3,0.1
			c-0.2,0.1-0.3,0.1-0.5,0.1c-0.2,0-0.3,0-0.5,0c-0.3,0-0.6,0-0.9,0c-0.3,0-0.6,0-0.9,0c-0.4,0-0.6-0.2-0.8-0.6
			c0-0.1-0.1-0.3-0.1-0.4c0-0.2-0.1-0.3-0.1-0.4c0-0.2,0-0.4,0-0.6c0-0.2,0-0.4,0-0.6c0-0.2,0-0.4,0-0.5c0-0.2,0-0.3,0-0.5
			c0-0.3,0-0.6,0-0.9c0-0.3,0-0.6,0-0.9c0-0.1,0-0.3,0.1-0.4s0.1-0.3,0.1-0.4s0-0.3,0-0.4c0-0.1,0-0.3,0-0.4c0-0.2,0-0.5,0-0.7
			c0-0.2,0-0.5,0-0.7c0-0.1,0-0.2,0-0.3c0-0.1,0-0.2,0-0.3s0-0.2,0-0.2c0-0.1,0-0.2,0-0.2c0-0.6,0-1.2-0.1-1.8s-0.1-1.2-0.1-1.8
			c0-0.2,0-0.5,0-0.7s0-0.5,0-0.7c0-0.1,0-0.1,0-0.2s0-0.1,0-0.2c0-0.2,0-0.5,0-0.7c0-0.2,0-0.5,0-0.7c0-0.1,0-0.3,0-0.4
			c0-0.1,0-0.2,0.1-0.4c0-0.2,0.1-0.4,0.3-0.5c0.2-0.1,0.4-0.2,0.6-0.2c0.2-0.1,0.5-0.1,0.7-0.1c0.2,0,0.4,0,0.6,0
			c0.3,0,0.6,0,0.8,0s0.5,0,0.8,0.1c0.3,0.1,0.5,0.2,0.5,0.5l0.1,0.5c0,0.2,0.1,0.3,0.1,0.5c0,0.2,0,0.5,0,0.7c0,0.2,0,0.5,0,0.7
			c0,0.3,0,0.6,0.1,0.9c0,0.3,0.1,0.6,0.1,0.9c0,0.1,0,0.2,0,0.2s0,0.1,0,0.2c0,0.1,0,0.1,0,0.2c0,0.1,0,0.2,0.2,0.2
			c0.1,0.1,0.3,0.1,0.5,0.1c0.2,0,0.4,0,0.6,0h0.4c0.2,0,0.4,0,0.6,0c0.2,0,0.4,0,0.6-0.1c0.4,0,0.8,0,1.2,0s0.8,0,1.3,0
			c0.1,0,0.2,0,0.3-0.1c0.1,0,0.1-0.1,0.1-0.2c0-0.2,0-0.5,0-0.7V752c0-0.3,0-0.7,0-1s0-0.7,0-1c0-0.5,0-1,0.1-1.5
			c0-0.2,0.1-0.3,0.3-0.4c0.1-0.1,0.3-0.1,0.5-0.1c0.2,0,0.3,0,0.5,0.1c0.2,0,0.3,0.1,0.5,0.1c0.2,0,0.4,0,0.5,0c0.2,0,0.3,0,0.5,0
			c0.1,0,0.2,0,0.4,0c0.1,0,0.2,0,0.4,0c0.1,0,0.2,0,0.2,0s0.1,0,0.2,0c0.3,0,0.5,0.1,0.6,0.3c0.1,0.2,0.2,0.4,0.2,0.7
			c0,0.1,0,0.3,0,0.4s0,0.3,0,0.4c0,0.5,0,1,0,1.4c0,0.5,0,0.9,0,1.4c0,0.1,0,0.2,0,0.3c0,0.1,0,0.2,0,0.3c0,0.3,0,0.7,0.1,1.1
			c0.1,0.4,0.1,0.7,0.1,1.1C1731,755.5,1731,755.7,1731,755.8z"/>
		<path class="st2" d="M1747.2,764.9c0,0.2-0.1,0.4-0.1,0.6c-0.1,0.2-0.2,0.3-0.3,0.5c-0.1,0.1-0.3,0.2-0.5,0.2c-0.2,0-0.5,0-0.8,0
			s-0.5,0-0.8,0c-0.4,0-0.7,0-1.1,0l-1.1,0.1l-1.2,0.1c-0.4,0-0.8,0-1.2,0c-0.1,0-0.2,0-0.4,0s-0.4,0-0.7-0.1c-0.2,0-0.4,0-0.6-0.1
			c-0.2,0-0.3,0-0.4-0.1c0,0-0.1,0-0.2,0c-0.1,0-0.2,0-0.3,0c-0.1,0-0.2,0-0.3,0c-0.2,0-0.4,0-0.7,0c-0.2,0-0.4,0-0.7,0
			c-0.4-0.1-0.7-0.3-0.8-0.7c-0.1-0.2-0.1-0.3-0.1-0.5c0-0.2-0.1-0.3-0.1-0.5c0-0.1,0-0.3,0-0.4c0-0.1,0-0.3,0-0.4
			c0-0.5,0-0.9-0.1-1.3c-0.1-0.4-0.1-0.9-0.1-1.3c0-0.1,0-0.2,0-0.3c0-0.1,0-0.2,0-0.3c0-0.2,0-0.4,0-0.6s0-0.4,0-0.6v-0.6
			c0-0.2,0-0.4,0-0.7c0-0.2,0-0.4,0-0.7v-0.1c-0.1-0.2-0.1-0.3-0.1-0.5c0-0.2,0-0.5,0-0.7c0-0.2,0-0.5,0-0.7c0-0.1,0-0.2,0-0.2
			c0-0.1,0-0.1,0-0.2c0-0.2,0-0.3,0-0.5c0-0.1,0-0.3,0-0.5c0-0.3,0-0.5,0-0.8s0-0.5,0-0.8c0-0.2,0-0.4,0-0.6c0-0.2,0-0.4,0-0.6
			c0-0.1,0-0.1,0-0.2c0-0.1,0-0.1,0-0.2s0-0.1,0-0.2c0-0.1,0-0.1,0-0.2c0-0.2,0-0.4,0-0.7c0-0.3,0-0.5,0.1-0.7
			c0.1-0.2,0.1-0.5,0.2-0.7c0.1-0.2,0.3-0.3,0.5-0.4l0.6-0.2l0.1,0.1c0.3,0,0.5,0,0.8,0c0.3,0,0.5,0,0.8,0c0.1,0,0.3,0,0.4,0
			c0.2,0,0.3,0,0.4,0c0.4,0,0.8-0.1,1.2-0.1c0.4,0,0.8,0,1.2,0c0.1,0,0.2,0,0.3,0.1c0.1,0,0.2,0.1,0.3,0.1c0.1,0,0.3,0,0.4,0
			c0.1,0,0.3,0,0.4,0s0.3,0,0.4,0c0.1,0,0.3,0,0.4,0c0.4,0,0.8,0,1.2-0.1c0.4,0,0.8-0.1,1.2-0.1c0.2,0,0.4,0,0.6,0.1
			c0.2,0.1,0.3,0.2,0.3,0.5c0,0.2,0,0.4,0,0.7c0,0.2,0,0.4,0,0.6v0.4c0,0.2,0,0.3,0,0.5c0,0.2,0,0.3,0,0.5c0,0.1,0,0.3-0.1,0.3
			c-0.1,0.2-0.2,0.3-0.2,0.4c-0.1,0.1-0.2,0.1-0.4,0.1c-0.5,0-1,0-1.6,0h-1.6c-0.2,0-0.4,0-0.6,0c-0.2,0-0.4,0-0.6,0
			c-0.2,0-0.5,0-0.7,0.1c-0.2,0-0.5,0.1-0.7,0.1c-0.2,0-0.3,0-0.5,0c-0.1,0-0.3,0-0.5,0c-0.2,0-0.3,0-0.4,0.1
			c-0.1,0-0.1,0.2-0.1,0.4v0.8c0,0.1,0,0.2,0,0.3s0,0.2,0,0.3c0,0.2,0.1,0.3,0.3,0.3c0.1,0,0.2,0,0.3,0c0.1,0,0.2,0,0.3,0
			c0.2,0,0.4,0,0.6,0h0.6c0.7,0,1.3,0,2,0s1.3,0,2,0c0.3,0,0.5,0,0.7,0.1c0.2,0.1,0.4,0.3,0.4,0.6c0,0.2,0,0.3,0,0.5
			c0,0.2,0,0.3,0,0.5c0,0.2,0,0.4,0,0.5c0,0.2,0,0.4,0,0.5c-0.1,0.4-0.2,0.7-0.3,0.9c-0.1,0.2-0.3,0.3-0.5,0.4
			c-0.2,0.1-0.4,0.1-0.6,0.1s-0.6,0-0.9,0c-0.2,0-0.3,0-0.5,0c-0.2,0-0.3,0-0.5,0c-0.2,0-0.4,0-0.6-0.1c-0.2,0-0.4-0.1-0.6-0.1
			c-0.2,0-0.3,0-0.5,0s-0.3,0-0.4,0c-0.2,0-0.3,0-0.5,0c-0.2,0-0.3,0-0.5,0c-0.2,0-0.3,0-0.5,0c-0.2,0-0.2,0.1-0.2,0.4v3.1
			c0,0.2,0,0.3,0,0.5c0,0.1,0,0.3,0.1,0.5c0.3,0,0.5,0,0.8,0h0.8c0.2,0,0.4,0,0.6,0s0.4,0,0.6,0c0.4,0,0.9,0,1.3,0
			c0.4,0,0.9,0,1.3,0h1.1c0.4,0,0.8,0,1.1,0.1c0.2,0.1,0.3,0.1,0.4,0.3s0.1,0.3,0.1,0.5c0,0.2,0,0.4,0,0.6c0,0.2,0,0.4,0,0.6
			C1747.2,764.5,1747.2,764.7,1747.2,764.9z"/>
		<path class="st2" d="M1764.6,765.9c-0.1,0-0.3,0-0.4,0c-0.2,0-0.4,0-0.5,0c-0.2,0-0.3,0-0.5,0c-0.1,0-0.2,0-0.2,0
			c-0.1,0-0.2,0-0.2,0c-0.3,0-0.7,0-1.1,0c-0.4,0-0.7,0-1.1-0.1c-0.3,0-0.6-0.2-0.8-0.5c-0.2-0.2-0.4-0.5-0.5-0.7
			c-0.2-0.2-0.3-0.5-0.5-0.7l-1.6-2.3c-0.2-0.2-0.4-0.3-0.6-0.3h-0.7c-0.3,0-0.5,0-0.6,0.1c-0.2,0-0.3,0.1-0.3,0.3
			c0,0.3,0,0.6,0,0.8c0,0.3,0,0.6,0,0.8c0,0.3,0,0.5,0,0.8s0,0.5,0,0.8s0,0.5-0.1,0.8c0,0.2-0.2,0.4-0.6,0.4c-0.2,0-0.4,0-0.6,0
			c-0.2,0-0.4,0-0.6,0c-0.1,0-0.2,0-0.2,0c-0.1,0-0.2,0-0.2,0c-0.1,0-0.3,0-0.4,0c-0.1,0-0.3,0-0.5,0c-0.4,0-0.7-0.2-0.9-0.5
			c-0.1-0.1-0.1-0.3-0.1-0.7s-0.1-0.8-0.1-1.2c0-0.4,0-0.9,0-1.3c0-0.4,0-0.7,0-0.8c0-0.2,0-0.4,0.1-0.6s0.1-0.4,0.1-0.6
			c0-0.1,0-0.1,0-0.2c0-0.1,0-0.1,0-0.2c0-0.3,0-0.6,0-0.9v-0.9c0-1.6,0-3.2-0.1-4.8c-0.1-1.6-0.1-3.2-0.1-4.8c0-0.2,0-0.4,0.1-0.7
			c0.1-0.2,0.2-0.3,0.5-0.3c0.1,0,0.2,0,0.2,0s0.1,0,0.2,0c0.1,0,0.2,0,0.4,0s0.2,0,0.4,0c0.1,0,0.2,0,0.3,0c0.1,0,0.2,0,0.3,0
			c0.7,0,1.4,0,2.2,0s1.4,0,2.2,0.1c0.4,0,0.9,0.1,1.3,0.2c0.4,0.1,0.9,0.2,1.3,0.2c0.3,0.1,0.6,0.2,0.7,0.3
			c0.2,0.1,0.4,0.2,0.6,0.3c0.4,0.2,0.7,0.4,1,0.6c0.2,0.2,0.5,0.5,0.7,0.9c0.2,0.3,0.4,0.6,0.5,0.9s0.3,0.6,0.4,0.9
			c0,0.1,0.1,0.2,0.1,0.4c0,0.1,0,0.2,0.1,0.4c0.1,0.2,0.1,0.5,0.2,0.7s0.1,0.5,0.1,0.8c0,0.4-0.1,0.8-0.2,1.2s-0.2,0.8-0.3,1.2
			c-0.1,0.3-0.2,0.6-0.4,0.8s-0.3,0.5-0.5,0.8c-0.1,0.1-0.2,0.2-0.2,0.3c-0.1,0.1-0.2,0.1-0.3,0.2c-0.1,0.1-0.3,0.2-0.5,0.4
			c-0.2,0.2-0.4,0.4-0.5,0.4l-0.1,0.1c0,0-0.1,0.1-0.1,0.1c0,0.1,0,0.1,0.1,0.2c0.1,0.1,0.2,0.2,0.3,0.4l0.4,0.4l0.2,0.2
			c0.2,0.2,0.4,0.5,0.5,0.8s0.4,0.6,0.6,0.8l0.6,0.8c0.2,0.3,0.4,0.5,0.6,0.8s0.3,0.6,0.4,0.9c0,0,0,0.1,0,0.2
			C1764.8,765.8,1764.7,765.9,1764.6,765.9z M1759.1,753.7c-0.1-0.3-0.3-0.6-0.5-1c-0.2-0.2-0.3-0.4-0.6-0.6s-0.5-0.3-0.7-0.4
			c-0.3-0.1-0.5-0.1-0.8-0.2c-0.3,0-0.5,0-0.8,0c-0.2,0-0.3,0-0.5,0c-0.2,0-0.3,0-0.5,0.1l-0.1,0.1v0.4c0,0.3,0,0.7,0,1
			c0,0.3,0,0.6,0,0.9c0,0.1,0,0.2,0,0.4c0,0.1,0,0.2,0,0.4c0,0.5,0,0.9,0,1.4c0,0.5,0.1,0.9,0.1,1.4c0,0.3,0.1,0.4,0.4,0.4
			c0.1,0,0.2,0,0.3,0c0.1,0,0.2,0,0.3,0c0.4,0,0.7-0.1,1.1-0.2c0.3-0.1,0.7-0.2,1-0.4c0.5-0.2,0.9-0.6,1.1-1.1
			c0.1-0.1,0.1-0.3,0.1-0.4c0-0.1,0.1-0.3,0.2-0.4c0,0,0.1-0.1,0.1-0.3v-0.4C1759.2,754.3,1759.2,754,1759.1,753.7z"/>
		<path class="st2" d="M1780.7,764.9c0,0.2-0.1,0.4-0.1,0.6c-0.1,0.2-0.2,0.3-0.3,0.5c-0.1,0.1-0.3,0.2-0.5,0.2c-0.2,0-0.5,0-0.8,0
			s-0.5,0-0.8,0c-0.4,0-0.7,0-1.1,0l-1.1,0.1l-1.2,0.1c-0.4,0-0.8,0-1.2,0c-0.1,0-0.2,0-0.4,0c-0.2,0-0.4,0-0.7-0.1
			c-0.2,0-0.4,0-0.6-0.1c-0.2,0-0.3,0-0.4-0.1c0,0-0.1,0-0.2,0c-0.1,0-0.2,0-0.3,0c-0.1,0-0.2,0-0.3,0c-0.2,0-0.4,0-0.7,0
			s-0.4,0-0.7,0c-0.4-0.1-0.7-0.3-0.8-0.7c-0.1-0.2-0.1-0.3-0.1-0.5c0-0.2-0.1-0.3-0.1-0.5c0-0.1,0-0.3,0-0.4c0-0.1,0-0.3,0-0.4
			c0-0.5,0-0.9-0.1-1.3c-0.1-0.4-0.1-0.9-0.1-1.3c0-0.1,0-0.2,0-0.3s0-0.2,0-0.3c0-0.2,0-0.4,0-0.6c0-0.2,0-0.4,0-0.6v-0.6
			c0-0.2,0-0.4,0-0.7s0-0.4,0-0.7v-0.1c-0.1-0.2-0.1-0.3-0.1-0.5c0-0.2,0-0.5,0-0.7c0-0.2,0-0.5,0-0.7c0-0.1,0-0.2,0-0.2
			c0-0.1,0-0.1,0-0.2c0-0.2,0-0.3,0-0.5s0-0.3,0-0.5c0-0.3,0-0.5,0-0.8c0-0.3,0-0.5,0-0.8c0-0.2,0-0.4,0-0.6c0-0.2,0-0.4,0-0.6
			c0-0.1,0-0.1,0-0.2c0-0.1,0-0.1,0-0.2s0-0.1,0-0.2c0-0.1,0-0.1,0-0.2c0-0.2,0-0.4,0-0.7c0-0.3,0-0.5,0.1-0.7
			c0.1-0.2,0.1-0.5,0.2-0.7c0.1-0.2,0.3-0.3,0.5-0.4l0.6-0.2l0.1,0.1c0.3,0,0.5,0,0.8,0c0.2,0,0.5,0,0.8,0c0.1,0,0.3,0,0.4,0
			c0.2,0,0.3,0,0.4,0c0.4,0,0.8-0.1,1.2-0.1c0.4,0,0.8,0,1.2,0c0.1,0,0.2,0,0.3,0.1c0.1,0,0.2,0.1,0.3,0.1c0.1,0,0.3,0,0.4,0
			c0.1,0,0.3,0,0.4,0s0.3,0,0.4,0c0.1,0,0.3,0,0.4,0c0.4,0,0.8,0,1.2-0.1c0.4,0,0.8-0.1,1.2-0.1c0.2,0,0.4,0,0.6,0.1
			s0.3,0.2,0.3,0.5c0,0.2,0,0.4,0,0.7c0,0.2,0,0.4,0,0.6v0.4c0,0.2,0,0.3,0,0.5c0,0.2,0,0.3,0,0.5c0,0.1,0,0.3-0.1,0.3
			c-0.1,0.2-0.2,0.3-0.2,0.4s-0.2,0.1-0.4,0.1c-0.5,0-1,0-1.6,0h-1.6c-0.2,0-0.4,0-0.6,0c-0.2,0-0.4,0-0.6,0c-0.2,0-0.5,0-0.7,0.1
			c-0.2,0-0.5,0.1-0.7,0.1c-0.2,0-0.3,0-0.5,0c-0.1,0-0.3,0-0.5,0c-0.2,0-0.3,0-0.4,0.1s-0.1,0.2-0.1,0.4v0.8c0,0.1,0,0.2,0,0.3
			s0,0.2,0,0.3c0,0.2,0.1,0.3,0.3,0.3c0.1,0,0.2,0,0.3,0c0.1,0,0.2,0,0.3,0c0.2,0,0.4,0,0.6,0h0.6c0.7,0,1.3,0,2,0s1.3,0,2,0
			c0.3,0,0.5,0,0.7,0.1c0.2,0.1,0.3,0.3,0.3,0.6c0,0.2,0,0.3,0,0.5s0,0.3,0,0.5c0,0.2,0,0.4,0,0.5c0,0.2,0,0.4,0,0.5
			c-0.1,0.4-0.2,0.7-0.3,0.9c-0.1,0.2-0.3,0.3-0.5,0.4c-0.2,0.1-0.4,0.1-0.6,0.1s-0.5,0-0.9,0c-0.2,0-0.3,0-0.5,0
			c-0.2,0-0.3,0-0.5,0c-0.2,0-0.4,0-0.6-0.1c-0.2,0-0.4-0.1-0.6-0.1c-0.2,0-0.3,0-0.5,0s-0.3,0-0.4,0c-0.2,0-0.3,0-0.5,0
			c-0.2,0-0.3,0-0.5,0c-0.2,0-0.3,0-0.5,0c-0.2,0-0.2,0.1-0.2,0.4v3.1c0,0.2,0,0.3,0,0.5s0,0.3,0.1,0.5c0.3,0,0.5,0,0.8,0h0.8
			c0.2,0,0.4,0,0.6,0s0.4,0,0.6,0c0.4,0,0.9,0,1.3,0c0.4,0,0.9,0,1.3,0h1.1c0.4,0,0.8,0,1.1,0.1c0.2,0.1,0.3,0.1,0.4,0.3
			c0.1,0.1,0.1,0.3,0.1,0.5c0,0.2,0,0.4,0,0.6s0,0.4,0,0.6C1780.7,764.5,1780.7,764.7,1780.7,764.9z"/>
	</g>
</g>
</svg>
