<svg clip-rule="evenodd" fill-rule="evenodd" stroke-linejoin="round" stroke-miterlimit="2" viewBox="0 0 24 24" xmlns="http://www.w3.org/2000/svg"><circle cx="12" cy="12" fill="#ca0088" r="12"/><path d="m7.791 11.337c-.018.054-.036.108-.072.162-.035.053-.071.089-.089.143a.215.215 0 0 1 -.09.089c-.036.018-.053.054-.071.072-.036.036-.072.072-.108.09l-.107.053c-.036.018-.072.036-.09.054s-.054.018-.089.018h-.538c-.053 0-.125 0-.179.018s-.125 0-.179 0-.089 0-.161-.018c-.036 0-.072-.018-.108-.018h-.125a.247.247 0 0 1 -.107-.036.142.142 0 0 1 -.072-.071c0-.018-.018-.036-.018-.036v-1.863c0-.018 0-.054-.018-.072 0-.018-.018-.035-.018-.071s0-.036.018-.054c0-.018.018-.036.018-.054v-.053c0-.018 0-.036-.018-.054l-.018-.143v-.574c0-.089.018-.143.054-.161a.386.386 0 0 1 .179-.036h.072c.018 0 .036 0 .053-.018.018 0 .036-.017.054-.017h.09c.071 0 .143 0 .215-.018.071-.018.143-.018.215-.018.071 0 .143 0 .215.018a.86.86 0 0 0 .214.018c.054 0 .108.017.162.017.053.018.107.018.143.054 0 0 .018.018.036.018.018.018.036.036.071.036a.248.248 0 0 0 .072.054.056.056 0 0 0 .036.018l.071.071c.018.018.036.054.072.072s.036.054.054.072c.018.035.018.053.036.089.018.054.053.108.071.161.018.054.036.108.036.179 0 .036 0 .09-.018.126s-.018.071-.018.125c-.018.054-.018.125-.053.161-.018.054-.054.09-.09.144-.018.017-.036.035-.036.053s.018.036.036.054c0 .018.018.018.018.018.018 0 .018.018.018.018l.161.269a.584.584 0 0 1 .072.304c0 .269-.018.412-.072.537zm-.663-.501c0-.054-.035-.108-.089-.161a.293.293 0 0 0 -.108-.054c-.053-.018-.089-.018-.107-.036-.036 0-.072-.018-.108-.018-.035 0-.071-.018-.107-.018h-.125c-.036 0-.09.018-.126.018-.018 0-.036 0-.036.018 0 0 0 .018-.018.036v.269c0 .143 0 .268.018.411 0 .018.018.036.018.054.018 0 .018.018.054.018h.269c.053 0 .107 0 .143-.018.054 0 .09-.018.107-.018a.394.394 0 0 0 .108-.071c.036-.036.054-.072.089-.108.018-.036.036-.071.036-.107-.018-.09-.018-.161-.018-.215zm-.125-1.2c0-.018 0-.036-.018-.054l-.018-.018c-.036-.036-.071-.071-.107-.071s-.072-.018-.126-.018h-.179c-.071 0-.125 0-.179.018-.018.017-.018.017-.036.017-.018.018-.018.036-.018.072v.305c0 .017 0 .035.018.035 0 0 .018.018.054.018s.072.018.107.018h.108c.054 0 .107 0 .143-.018.054 0 .09-.018.126-.036a.212.212 0 0 0 .089-.089.338.338 0 0 0 .036-.143zm4.621.806c0 .089-.018.143-.018.197 0 .018 0 .036-.018.054-.018.017-.018.035-.018.035 0 .018 0 .036-.018.054s-.018.054-.018.072a.14.14 0 0 1 -.035.071c-.018.018-.018.036-.036.054-.018.036-.054.072-.054.09a.247.247 0 0 0 -.036.107l-.018.036a1.989 1.989 0 0 1 -.251.304c-.089.09-.197.162-.322.233-.018.018-.036.018-.072.036l-.107.054-.107.054c-.036.017-.054.017-.072.035l-.215.036c-.072.018-.143.018-.215.018h-.09c-.035 0-.071 0-.089-.018-.054-.018-.125-.018-.179-.036a.532.532 0 0 0 -.179-.035c-.09-.018-.161-.054-.233-.072-.072-.036-.125-.054-.197-.09-.054-.035-.126-.071-.179-.125-.054-.054-.126-.09-.179-.143-.036-.018-.054-.054-.072-.072a.393.393 0 0 1 -.072-.09c-.018-.017-.018-.053-.035-.071l-.054-.054a.533.533 0 0 1 -.072-.179c-.018-.072-.036-.125-.054-.197 0-.018 0-.036-.017-.072 0-.035-.018-.071-.018-.107s-.018-.072-.018-.108v-.071c0-.054 0-.108.018-.161l.018-.162c0-.035 0-.071.017-.089a.136.136 0 0 0 .036-.072c.036-.107.072-.215.126-.34a.887.887 0 0 1 .197-.305l.232-.214c.018-.018.018-.018.018-.036s.018-.018.036-.036c.036-.018.072-.054.108-.072l.107-.054c.018-.017.054-.017.072-.035.018 0 .054-.018.071-.018.072-.036.144-.054.197-.072a.67.67 0 0 1 .215-.036h.448c.072 0 .126.018.197.036a.526.526 0 0 0 .161.036c.054 0 .108.018.162.036a.29.29 0 0 0 .089.036c.018 0 .072.035.09.053.053.036.107.072.143.108s.089.071.125.125l.144.143c.017.036.053.09.089.126.018.036.036.054.054.089.018.036.018.054.036.09.036.072.071.143.089.197s.054.125.054.215c0 .036.018.071.018.107s.018.072.018.108c-.018.054-.018.125-.018.197zm-.86-.287a.847.847 0 0 0 -.054-.161.45.45 0 0 0 -.089-.161c-.036-.054-.09-.09-.125-.143a.192.192 0 0 0 -.09-.054c-.036-.018-.09-.036-.125-.054-.054-.018-.09-.036-.144-.036-.036-.018-.071-.018-.089-.018h-.233c-.018 0-.054.018-.072.018s-.036.018-.053.018c-.018 0-.036.018-.054.018-.036 0-.054.018-.072.018-.018.018-.036.018-.054.036-.017.018-.053.036-.089.054-.036.017-.054.035-.09.053-.035.036-.071.072-.089.108s-.054.089-.072.125-.036.054-.036.108c0 .053-.018.071-.035.125-.018.036-.018.09-.018.125 0 .036-.018.072-.018.108a.613.613 0 0 0 .071.304.485.485 0 0 0 .126.144c.053.035.125.107.197.143.071.036.143.071.233.107a.416.416 0 0 0 .197.036h.053c.018 0 .036 0 .054-.018l.251-.018c.018 0 .036-.018.071-.018.036 0 .054-.018.09-.035.036-.018.054-.036.072-.036.018-.018.035-.036.053-.036a.248.248 0 0 0 .054-.072c.018-.036.036-.053.054-.071l.036-.036c.018 0 .018-.018.035-.036.036-.072.072-.143.09-.233a1.39 1.39 0 0 0 .036-.251c-.054-.035-.054-.089-.072-.161zm4.764.287c0 .089-.018.143-.018.197 0 .018 0 .036-.017.054-.018.017-.018.035-.018.035 0 .018 0 .036-.018.054s-.018.054-.018.072a.134.134 0 0 1 -.036.071c-.018.018-.018.036-.036.054-.018.036-.054.072-.054.09-.017.035-.035.071-.035.107l-.018.036a2.05 2.05 0 0 1 -.251.304c-.09.09-.197.162-.322.233-.018.018-.036.018-.072.036l-.108.054-.107.054c-.036.017-.054.017-.072.035l-.215.036c-.071.018-.143.018-.214.018h-.09c-.036 0-.072 0-.09-.018-.053-.018-.125-.018-.179-.036a.522.522 0 0 0 -.179-.035c-.089-.018-.161-.054-.233-.072-.071-.036-.125-.054-.197-.09-.053-.035-.125-.071-.179-.125-.053-.054-.125-.09-.179-.143-.036-.018-.054-.054-.072-.072-.017-.018-.053-.054-.071-.09-.018-.017-.018-.053-.036-.071l-.054-.054a.533.533 0 0 1 -.071-.179c-.018-.072-.036-.125-.054-.197 0-.018 0-.036-.018-.072 0-.035-.018-.071-.018-.107s-.018-.072-.018-.108v-.071c0-.054 0-.108.018-.161l.018-.162c0-.035 0-.071.018-.089a.136.136 0 0 0 .036-.072c.036-.107.071-.215.125-.34a.917.917 0 0 1 .197-.305l.233-.214c.018-.018.018-.018.018-.036s.018-.018.036-.036c.036-.018.071-.054.107-.072l.108-.054c.018-.017.053-.017.071-.035.018 0 .054-.018.072-.018.072-.036.143-.054.197-.072a.665.665 0 0 1 .215-.036h.448c.071 0 .125.018.197.036a.513.513 0 0 0 .161.036c.054 0 .107.018.161.036a.304.304 0 0 0 .09.036.372.372 0 0 1 .089.053.933.933 0 0 1 .143.108c.036.036.09.071.126.125l.143.143c.018.036.054.09.09.126.018.036.035.054.053.089.018.036.018.054.036.09.036.072.072.143.09.197s.053.125.053.215c0 .036.018.071.018.107s.018.072.018.108c0 .054 0 .125-.018.197zm-.859-.287a.847.847 0 0 0 -.054-.161.467.467 0 0 0 -.09-.161c-.035-.054-.089-.09-.125-.143a.192.192 0 0 0 -.09-.054c-.035-.018-.089-.036-.125-.054-.054-.018-.089-.036-.143-.036-.036-.018-.072-.018-.09-.018h-.233c-.018 0-.053.018-.071.018s-.036.018-.054.018-.036.018-.054.018c-.036 0-.053.018-.071.018-.018.018-.036.018-.054.036s-.054.036-.09.054c-.035.017-.053.035-.089.053-.036.036-.072.072-.09.108s-.053.089-.071.125-.036.054-.036.108c0 .053-.018.071-.036.125-.018.036-.018.09-.018.125 0 .036-.018.072-.018.108s0 .089.018.161.036.107.054.143c.036.054.071.108.125.144.054.035.126.107.197.143.072.036.143.071.233.107a.418.418 0 0 0 .197.036h.054c.018 0 .036 0 .054-.018l.25-.018c.018 0 .036-.018.072-.018.018-.018.054-.018.089-.035.036-.018.054-.036.072-.036.018-.018.036-.036.054-.036a.248.248 0 0 0 .054-.072c.017-.036.035-.053.053-.071l.036-.036c.018 0 .018-.018.036-.036.036-.072.072-.143.089-.233a1.39 1.39 0 0 0 .036-.251c-.036-.035-.053-.089-.071-.161zm3.832-1.236c-.035.036-.053.072-.071.09a8.784 8.784 0 0 0 -.358.537c-.036.054-.072.108-.09.161-.036.054-.054.108-.089.162l-.126.179c.018.071.054.143.072.197a.936.936 0 0 0 .071.197.387.387 0 0 1 .054.143c.036.072.072.161.108.251.035.089.089.197.125.322.036.126.09.215.125.323.036.107.072.197.09.268.018.072.036.144.036.161 0 .018 0 .036-.018.036-.018.018-.036.018-.054.018h-.573c-.054 0-.072 0-.09-.036-.017-.035-.017-.053-.035-.089l-.162-.43c-.035-.108-.089-.197-.125-.305-.036-.107-.09-.197-.125-.304-.036.072-.09.143-.126.215-.053.072-.089.143-.143.215v.645c0 .035-.018.053-.036.071-.018 0-.054.018-.089.018h-.323c-.053 0-.125 0-.179-.018s-.089-.018-.107-.036c-.018-.017-.018-.053-.036-.107 0-.054-.018-.107-.018-.161v-2.812c0-.018.018-.036.018-.054s.036-.018.054-.018h.089c.108-.018.215-.018.323-.018h.107c.054 0 .09.018.125.036.036.018.036.054.036.108v.734c0 .072 0 .161.018.233.09-.126.161-.233.233-.358.072-.108.143-.233.233-.359l.071-.107c.054-.072.108-.143.144-.215a.222.222 0 0 1 .143-.108h.681c.017 0 .053 0 .089.018.036 0 .036.018.036.054s-.09.108-.108.143zm-9.546 5.553v1.737c0 .018 0 .036-.018.054s-.018.018-.053.036c-.036.017-.072.017-.126.017h-.519c-.018 0-.036 0-.054-.017 0 0-.018-.018-.018-.054-.018-.054-.018-.108-.018-.144v-1.182c0-.035-.018-.035-.036-.035h-1.003c-.017 0-.035 0-.035.017-.018 0-.018.018-.018.036v.394c0 .036 0 .054.018.09s.018.054.018.089v.466c0 .108 0 .197-.018.305 0 .018-.018.035-.018.053-.018.018-.018.018-.054.018-.036.018-.054.018-.09.018h-.412c-.071 0-.107-.036-.143-.107 0-.018-.018-.054-.018-.072 0-.036-.018-.054-.018-.072v-.716c0-.018 0-.054.018-.072s.018-.053.018-.071v-.573c0-.108 0-.215-.018-.323-.018-.107-.018-.215-.018-.322v-.645c0-.018 0-.036.018-.072 0-.035.018-.071.054-.089s.072-.036.107-.036c.036-.018.09-.018.126-.018h.251c.035 0 .089 0 .143.018s.089.036.089.09l.018.089c0 .036.018.054.018.09v.25c0 .054 0 .108.018.162 0 .053.018.107.018.161v.107c0 .018 0 .036.036.036.018.018.054.018.089.018h.287c.036 0 .072 0 .107-.018h.448c.018 0 .036 0 .054-.018.018 0 .018-.018.018-.036v-.698c0-.09 0-.179.018-.269 0-.036.018-.054.054-.071.017-.018.053-.018.089-.018s.054 0 .09.018c.035 0 .053.017.089.017h.394c.054 0 .09.018.108.054a.26.26 0 0 1 .036.126v.752c0 .054 0 .125.017.197a.727.727 0 0 1 .018.197c-.179-.018-.179.018-.179.036zm2.902 1.629c0 .036-.018.072-.018.108-.018.036-.036.054-.054.09a.142.142 0 0 1 -.089.035h-.484l-.197.018-.215.018h-.287c-.035 0-.071 0-.125-.018-.036 0-.072 0-.107-.018-.036 0-.054 0-.072-.018h-.394c-.072-.017-.125-.053-.143-.125-.018-.036-.018-.054-.018-.09 0-.035-.018-.053-.018-.089v-.143c0-.09 0-.162-.018-.233-.018-.072-.018-.161-.018-.233v-.699c-.018-.035-.018-.053-.018-.089v-1.272c0-.053 0-.089.018-.125s.018-.09.036-.125c.018-.036.054-.054.089-.072l.108-.036.018.018h.43c.071 0 .143-.018.215-.018h.214c.018 0 .036 0 .054.018.018 0 .036.018.054.018h.286c.072 0 .144 0 .215-.018.072 0 .144-.018.215-.018.036 0 .072 0 .108.018s.054.036.054.09v.483c0 .018 0 .054-.018.054-.018.036-.036.054-.036.071-.018.018-.036.018-.072.018h-.788c-.036 0-.089 0-.125.018-.036 0-.09.018-.126.018h-.179c-.036 0-.053 0-.071.018-.018 0-.018.036-.018.072v.251c0 .035.018.053.053.053h1.039c.054 0 .09 0 .126.018a.122.122 0 0 1 .071.108v.358a.94.94 0 0 1 -.053.161c-.018.036-.054.054-.09.072s-.072.018-.108.018h-.34c-.036 0-.071 0-.107-.018-.036 0-.072-.018-.108-.018h-.43c-.035 0-.035.018-.035.071v.645c0 .018 0 .054.018.09h1.164c.071 0 .143 0 .197.018.036.018.053.018.071.053.018.036.018.054.018.09v.215c.108 0 .108.036.108.071zm3.116.18h-.519c-.072 0-.126 0-.197-.018-.054 0-.108-.036-.144-.09a.568.568 0 0 1 -.089-.125c-.036-.036-.054-.09-.09-.126l-.286-.412c-.036-.035-.072-.053-.108-.053h-.125c-.054 0-.09 0-.108.018-.035 0-.053.018-.053.053v.573c0 .054 0 .09-.018.144 0 .036-.036.071-.108.071h-.447a.188.188 0 0 1 -.162-.089c-.018-.018-.018-.054-.018-.126 0-.071-.017-.143-.017-.214v-.377c0-.035 0-.071.017-.107.018-.036.018-.072.018-.107v-.395c0-.286 0-.573-.018-.859-.017-.287-.017-.573-.017-.86 0-.036 0-.072.017-.125.018-.036.036-.054.09-.054h.716c.144 0 .251 0 .394.018.072 0 .162.018.233.036.072.018.162.036.233.036a.408.408 0 0 1 .126.053l.107.054c.072.036.125.072.179.107a.61.61 0 0 1 .125.162.702.702 0 0 1 .09.161c.018.054.054.107.072.161 0 .018.018.036.018.072 0 .018 0 .036.017.071.018.036.018.09.036.126a.346.346 0 0 1 .018.143c0 .072-.018.143-.036.215l-.053.215a.358.358 0 0 1 -.072.143c-.036.036-.054.09-.09.143-.017.018-.035.036-.035.054-.018.018-.036.018-.054.036s-.054.036-.09.072c-.035.035-.071.071-.089.071l-.018.018-.018.018c0 .018 0 .018.018.036a.248.248 0 0 1 .054.072l.107.107c.036.036.072.09.09.143a.43.43 0 0 0 .107.144l.108.143c.035.054.071.089.107.143s.054.108.072.161v.036c-.054.09-.072.108-.09.108zm-.985-2.185c-.018-.054-.054-.108-.089-.18-.036-.035-.054-.071-.108-.107s-.09-.054-.125-.072c-.054-.018-.09-.018-.144-.036h-.232c-.036 0-.054 0-.09.018l-.018.018v.806c0 .09.018.161.018.251 0 .054.018.072.072.072h.107c.072 0 .125-.018.197-.036.054-.018.125-.036.179-.072a.353.353 0 0 0 .197-.197c.018-.018.018-.054.018-.071 0-.018.018-.054.036-.072 0 0 .018-.018.018-.054v-.071c-.018-.09-.018-.144-.036-.197zm3.869 2.005c0 .036-.018.072-.018.108-.018.036-.036.054-.054.09a.142.142 0 0 1 -.089.035h-.484l-.197.018-.215.018h-.287c-.035 0-.071 0-.125-.018-.036 0-.072 0-.107-.018-.036 0-.054 0-.072-.018h-.394c-.072-.017-.125-.053-.143-.125-.018-.036-.018-.054-.018-.09 0-.035-.018-.053-.018-.089v-.143c0-.09 0-.162-.018-.233-.018-.072-.018-.161-.018-.233v-.699c-.018-.035-.018-.053-.018-.089v-1.272c0-.053 0-.089.018-.125s.018-.09.036-.125c.018-.036.054-.054.089-.072l.108-.036.018.018h.43c.071 0 .143-.018.215-.018h.214c.018 0 .036 0 .054.018.018 0 .036.018.054.018h.286c.072 0 .144 0 .215-.018.072 0 .144-.018.215-.018.036 0 .072 0 .108.018s.054.036.054.09v.483c0 .018 0 .054-.018.054-.018.036-.036.054-.036.071 0 .018-.036.018-.072.018h-.788c-.036 0-.089 0-.125.018-.036 0-.09.018-.126.018h-.179c-.036 0-.053 0-.071.018s-.018.036-.018.072v.251c0 .035.018.053.053.053h1.039c.054 0 .09 0 .126.018.035.018.053.054.053.108v.358a.858.858 0 0 1 -.053.161c-.018.036-.054.054-.09.072s-.072.018-.107.018h-.341c-.036 0-.071 0-.107-.018-.036 0-.072-.018-.108-.018h-.429c-.036 0-.036.018-.036.071v.645c0 .036 0 .054.018.09h1.164c.071 0 .143 0 .197.018.036.018.054.018.071.053.018.018.018.054.018.09v.215c.126 0 .126.036.126.071z" fill="#fff" fill-rule="nonzero"/></svg>