<svg xmlns="http://www.w3.org/2000/svg" width="87.643" height="87.615" viewBox="0 0 87.643 87.615"><defs><style>.a{fill:#ca0088;}</style></defs><path class="a" d="M-643.79,941.29a43.79,43.79,0,0,1,43.859,44.446,43.862,43.862,0,0,1-44.737,43.16,43.877,43.877,0,0,1-42.9-44.037A43.793,43.793,0,0,1-643.79,941.29Zm4.281,71.993V984.993h7.855c.281-3.177.55-6.227.831-9.406h-8.692c0-2-.009-3.873,0-5.748.013-2.186.594-2.776,2.763-2.824.743-.017,1.488,0,2.231,0h3.652v-9.786c-4.349.194-8.681-.482-12.921.647a8.781,8.781,0,0,0-6.937,8.694c-.119,2.616-.046,5.241-.059,7.861,0,.375,0,.751,0,1.224h-5.856v9.509h5.869v28.123Z" transform="translate(687.57 -941.289)"/></svg>