<svg viewBox="0 0 24 24" xmlns="http://www.w3.org/2000/svg" fill-rule="evenodd" clip-rule="evenodd" stroke-linejoin="round" stroke-miterlimit="2"><path d="M24 6c0-3.312-2.689-6-6-6H6C2.689 0 0 2.688 0 6v12c0 3.311 2.689 6 6 6h12c3.311 0 6-2.689 6-6V6z" fill="#ca0088"/><g fill="#fff" fill-rule="nonzero"><path d="M22.087 10.958c.293.078.324.128.339.389.017.298.079.597.074.894a16.174 16.174 0 01-.095 1.719c-.062.481-.195.956-.321 1.428-.413 1.552-1.3 2.81-2.46 3.893-.233.217-.439.472-.696.654-.548.386-1.11.757-1.688 1.096-.553.324-1.132.605-1.705.895a4.386 4.386 0 01-.511.185.74.74 0 00-.105.029c-.494.265-1.045.328-1.581.448-.884.197-1.785.217-2.681.269a3.146 3.146 0 01-1.572-.301c-.605-.294-1.217-.582-1.792-.928-.51-.305-.992-.654-1.442-1.041a16.86 16.86 0 01-2.109-2.215c-.25-.312-.438-.678-.628-1.034-.286-.538-.598-1.059-.787-1.651-.124-.39-.27-.77-.321-1.178a.295.295 0 00-.024-.088c-.223-.487-.282-1.009-.335-1.533-.051-.499-.126-.997-.145-1.496a7.367 7.367 0 01.069-1.188c.074-.588.161-1.176.278-1.756.138-.689.527-1.273.854-1.882.789-1.467 1.897-2.647 3.258-3.588.465-.319.955-.599 1.465-.839.377-.179.798-.266 1.199-.393.355-.112.704-.259 1.068-.325a20.748 20.748 0 011.908-.252 7.927 7.927 0 011.412-.005c1.857.174 3.563.739 5.054 1.916.541.427 1.086.841 1.529 1.364.387.457.725.956 1.071 1.447.058.082.044.214.063.323l-.052.024c-.12-.11-.243-.217-.358-.332-.324-.324-.673-.628-.961-.982-.474-.586-1.092-1.004-1.667-1.466a5.325 5.325 0 00-1.425-.816 17.315 17.315 0 00-2.384-.709 7.9 7.9 0 00-1.859-.185c-.376.007-.758-.019-1.129.025-.398.047-.787.168-1.18.257-.244.055-.491.096-.729.17a6.317 6.317 0 00-.839.313c-.441.211-.869.45-1.303.677-.571.297-1.092.645-1.469 1.192-.192.279-.467.501-.691.76-.139.16-.254.341-.379.513-.028.039-.053.081-.078.122-.124.195-.282.378-.366.59-.299.755-.65 1.494-.799 2.3-.077.415-.135.833-.187 1.251-.017.138.034.284.014.421a1.423 1.423 0 01-.149.497c-.107.186-.146.352-.017.528.129.176.095.351-.009.51a.51.51 0 00-.05.521c.115.246.147.522.092.788a.347.347 0 00.103.291c.191.137.21.331.252.528.042.201.096.4.145.6.003.012.011.026.008.035-.129.331.158.607.122.932-.014.117.042.255.099.367.161.314.338.619.51.927.015.026.053.044.058.07.048.276.212.495.348.729.024.042.024.098.052.136.159.213.322.423.485.633a.413.413 0 00.074.082c.159.114.062.356.266.472.144.082.223.271.343.403.123.149.261.285.412.407.218.158.449.3.688.423.193.09.39.169.592.238.076.022.15.052.22.088.637.407 1.338.65 2.066.828.48.117.958.261 1.446.326.572.076 1.149.142 1.735.094.451-.037.906 0 1.338-.182a.598.598 0 01.251-.045.879.879 0 00.65-.198.381.381 0 01.168-.068c.763-.155 1.433-.515 2.065-.95.445-.305.869-.639 1.301-.964.077-.059.15-.125.217-.197.22-.229.443-.456.653-.695a4.78 4.78 0 00.322-.441c.039-.055.058-.124.1-.174.391-.462.621-1.006.829-1.566.109-.265.24-.521.391-.765.132-.229.273-.448.283-.726.003-.077.062-.158.11-.227.298-.423.474-.919.51-1.435.017-.226-.033-.476.048-.674.206-.505.008-1.013.071-1.527"/><path d="M13.781 12.834c-.004.213.092.283.232.215a.947.947 0 00.227-.154c.603-.553 1.303-1.011 1.711-1.755.048-.087.147-.171.056-.249-.054-.046-.194-.044-.267-.007-.751.38-1.404.875-1.822 1.628a2.935 2.935 0 00-.137.322m1.507-.247c-.182.166-.349.335-.534.482a6.386 6.386 0 01-.558.381c-.191.121-.377.094-.53-.068-.162-.172-.352-.176-.555-.113-.396.123-.789.258-1.188.374-.183.05-.37.084-.558.103-.254.03-.564-.16-.645-.399a.43.43 0 01.021-.23c.26-.947.667-1.836 1.089-2.72.147-.309.291-.62.437-.93.082-.175.158-.202.329-.12.005.003.01.007.016.009.293.139.343.242.141.504-.305.396-.47.857-.666 1.302-.255.582-.47 1.182-.693 1.777-.031.083-.008.185-.011.278.088 0 .182.021.263-.003.402-.124.799-.266 1.202-.388.15-.045.311-.05.507-.079.069-.374.301-.738.571-1.08a3.489 3.489 0 011.655-1.175c.32-.107.527-.027.725.256.046.061.11.106.183.13.166.054.191.101.096.245-.141.215-.291.425-.425.645-.216.351-.341.75-.363 1.162-.002.158.029.315.093.46.063.154.015.197-.126.218-.225.032-.345-.025-.39-.249-.048-.241-.057-.49-.087-.771M5.957 13.7c-.127-.019-.256-.03-.381-.059-.462-.106-.719-.424-.737-.892a2.7 2.7 0 01.202-1.147c.303-.736.665-1.436 1.217-2.019.277-.293.566-.582.97-.703a2.24 2.24 0 01.325-.06c.378-.052.59.189.766.462.047.073.042.206.013.295-.074.233-.171.458-.266.683-.06.142-.242.177-.454.094-.158-.062-.227-.186-.163-.333.081-.184.185-.357.267-.54.024-.053.007-.125.009-.188a.762.762 0 00-.172.004c-.303.082-.525.285-.724.514-.64.742-1.125 1.573-1.394 2.519-.04.142-.059.288-.057.435.005.369.31.572.656.441.441-.168.779-.482 1.101-.812.125-.129.264-.189.426-.145a.46.46 0 01.227.176c.02.027-.041.136-.09.182-.285.269-.568.542-.87.791a1.355 1.355 0 01-.872.302M16.583 12.817c.025-.524.205-1.009.438-1.464.438-.855.911-1.692 1.375-2.534.121-.219.263-.277.467-.228.213.05.28.222.126.38-.454.467-.776 1.027-1.081 1.589-.334.615-.675 1.237-.817 1.936a2.201 2.201 0 00-.023.473c.002.137.09.146.19.091a.49.49 0 00.142-.114c.33-.398.553-.873.65-1.38.027-.135-.06-.291-.082-.439-.015-.101-.038-.217-.003-.304.061-.154.196-.181.282-.044.247.393.592.308.942.232.161-.035.319-.085.48-.116a.62.62 0 01.271-.006.248.248 0 01.133.149c.01.027-.059.108-.106.124a9.875 9.875 0 01-.822.254 2.01 2.01 0 01-.489.048c-.099 0-.133.005-.143.121a2.656 2.656 0 01-.925 1.796c-.255.224-.556.197-.823-.012-.187-.146-.176-.349-.182-.553M9.622 10.548a.337.337 0 00-.078.045c-.516.522-.874 1.133-1.012 1.857a.785.785 0 00.064.453c.091.197.242.206.369.028.314-.437.628-.879.77-1.409.087-.327.162-.663-.113-.974m-1.577 1.723c.013-.455.332-.981.703-1.481.131-.178.275-.346.43-.502.194-.193.431-.299.699-.168a.582.582 0 01.245.251c.144.293.185.33.518.327.184-.002.367-.007.551-.002a.5.5 0 01.194.045c.045.021.102.068.106.108.004.033-.057.095-.1.107-.286.079-.572.162-.863.216-.119.022-.176.045-.209.172-.157.614-.358 1.211-.788 1.698a3.172 3.172 0 01-.411.392c-.156.123-.332.129-.517.035-.421-.214-.562-.458-.558-1.198M21.96 9.222c.138.226.248.466.259.738.002.045-.074.093-.115.139-.048-.046-.122-.085-.139-.141a3.103 3.103 0 01-.095-.458 1.97 1.97 0 01-.003-.266l.093-.012M21.008 7.053l-.041-.283c.042.004.1-.006.124.017.086.086.083.178-.083.266"/></g></svg>