<svg viewBox="0 0 24 24" xmlns="http://www.w3.org/2000/svg" fill-rule="evenodd" clip-rule="evenodd" stroke-linejoin="round" stroke-miterlimit="2"><g fill="#fff" fill-rule="nonzero"><path d="M22.758 10.849c.323.086.358.141.375.429.018.33.087.66.081.988a17.695 17.695 0 01-.105 1.898c-.068.532-.215 1.056-.354 1.577-.456 1.715-1.436 3.104-2.718 4.3-.257.24-.484.521-.768.722-.605.427-1.226.837-1.864 1.211-.611.358-1.251.669-1.884.989-.183.08-.372.148-.564.204a.799.799 0 00-.116.032c-.546.293-1.154.363-1.746.495-.977.217-1.971.24-2.962.297a3.48 3.48 0 01-1.736-.332c-.668-.325-1.344-.643-1.979-1.025a11.392 11.392 0 01-1.593-1.151 18.698 18.698 0 01-2.329-2.445c-.277-.345-.484-.75-.693-1.143-.317-.593-.661-1.17-.87-1.823-.137-.431-.298-.85-.354-1.301a.318.318 0 00-.027-.097c-.246-.538-.311-1.115-.37-1.694-.057-.551-.14-1.1-.16-1.652-.01-.439.015-.878.076-1.312.082-.649.178-1.298.307-1.94.153-.761.582-1.406.943-2.078.872-1.62 2.096-2.923 3.599-3.963a11.627 11.627 0 011.618-.927C6.982.911 7.446.814 7.89.674 8.282.55 8.667.388 9.069.316a22.33 22.33 0 012.107-.279 8.835 8.835 0 011.56-.006c2.051.193 3.935.817 5.582 2.117.597.471 1.2.928 1.689 1.506.427.505.801 1.056 1.182 1.598.064.091.049.236.071.357l-.058.027c-.132-.122-.268-.24-.395-.367-.358-.358-.744-.694-1.062-1.085-.524-.647-1.206-1.109-1.841-1.619a5.905 5.905 0 00-1.574-.901A19.182 19.182 0 0013.697.88a8.808 8.808 0 00-2.054-.204c-.414.008-.836-.021-1.247.028-.439.051-.869.185-1.303.283-.269.061-.542.107-.805.189a6.83 6.83 0 00-.926.346c-.488.233-.961.497-1.44.747-.63.328-1.206.712-1.622 1.316-.212.309-.516.554-.764.84-.153.177-.28.376-.418.566-.031.044-.058.09-.087.135-.137.216-.311.418-.403.652-.33.834-.719 1.65-.883 2.541A23.69 23.69 0 001.538 9.7c-.019.152.038.314.016.465a1.58 1.58 0 01-.165.549c-.118.205-.161.388-.018.583.143.194.105.388-.011.564a.562.562 0 00-.054.575c.127.272.162.577.102.87a.383.383 0 00.113.322c.211.151.232.366.278.583.046.222.106.442.16.662.003.014.013.029.009.04-.142.365.174.67.134 1.028-.014.13.047.282.11.406.178.346.374.683.564 1.023.016.029.058.049.063.078.053.305.235.547.385.805.026.046.027.109.058.15.175.236.355.468.535.7a.44.44 0 00.082.09c.176.126.069.394.293.522.159.09.247.299.379.444.137.165.289.315.456.45.241.175.495.331.76.468.213.098.431.186.653.262.084.025.165.057.243.098.703.449 1.478.718 2.282.914.53.129 1.058.288 1.597.36.632.084 1.269.157 1.916.104.498-.041 1.002-.001 1.478-.201a.663.663 0 01.278-.05.96.96 0 00.717-.219.433.433 0 01.186-.075c.842-.171 1.583-.569 2.281-1.048.491-.338.96-.707 1.436-1.065.086-.066.167-.139.241-.218.243-.253.489-.504.721-.768.127-.155.246-.318.356-.487.042-.061.063-.137.11-.193.431-.51.686-1.11.916-1.729.12-.293.264-.575.431-.845.146-.253.302-.494.313-.802.004-.085.068-.175.121-.25.33-.467.524-1.016.563-1.586.019-.249-.035-.525.054-.744.227-.558.009-1.119.078-1.686"/><path d="M13.584 12.92c-.005.236.101.314.257.238.091-.044.175-.102.25-.17.666-.611 1.439-1.116 1.89-1.939.053-.096.163-.188.062-.275-.059-.05-.214-.047-.295-.007-.829.42-1.551.966-2.012 1.799a3.066 3.066 0 00-.152.354m1.664-.272c-.201.183-.385.37-.589.532a6.99 6.99 0 01-.617.421c-.211.134-.415.104-.585-.075-.179-.19-.389-.194-.613-.124-.438.135-.872.285-1.312.413a3.682 3.682 0 01-.617.113c-.28.033-.622-.177-.712-.44a.469.469 0 01.023-.254c.288-1.047.738-2.029 1.203-3.005.163-.341.322-.684.483-1.027.091-.193.174-.224.363-.132.006.002.011.007.017.01.325.153.38.266.157.556-.337.437-.52.946-.735 1.438-.282.643-.52 1.305-.766 1.963-.034.091-.01.204-.012.306.097 0 .201.024.289-.003.445-.137.884-.294 1.329-.428.165-.049.343-.055.56-.088.076-.412.333-.814.63-1.192a3.852 3.852 0 011.828-1.298c.354-.118.582-.029.801.283a.411.411 0 00.202.143c.183.06.211.112.106.271-.156.238-.321.47-.469.712a2.72 2.72 0 00-.401 1.284c-.003.174.032.348.102.508.07.17.017.217-.138.24-.249.036-.381-.027-.431-.275-.053-.266-.063-.54-.096-.851M4.942 13.877c-.14-.021-.282-.033-.42-.064-.511-.118-.794-.469-.814-.986a2.974 2.974 0 01.223-1.267c.334-.812.734-1.586 1.344-2.23.306-.324.625-.643 1.072-.776a2.4 2.4 0 01.358-.066c.417-.058.652.208.847.51.052.08.046.227.014.326-.082.256-.19.505-.294.754-.066.157-.267.195-.501.103-.175-.068-.251-.205-.18-.367.089-.203.204-.395.295-.597.026-.059.007-.137.009-.207a.756.756 0 00-.19.005c-.335.09-.58.314-.799.567-.708.82-1.242 1.737-1.54 2.783a1.686 1.686 0 00-.063.479c.005.408.343.633.724.488.488-.186.861-.533 1.216-.898.139-.141.292-.208.472-.159a.5.5 0 01.25.194c.021.029-.046.15-.1.201-.315.297-.627.599-.961.873a1.489 1.489 0 01-.962.334M16.679 12.902c.027-.579.226-1.114.484-1.617.484-.944 1.006-1.869 1.518-2.798.134-.242.291-.306.517-.253.234.055.308.246.139.42-.502.516-.858 1.134-1.194 1.755-.37.679-.746 1.367-.903 2.139a2.397 2.397 0 00-.025.522c.002.151.099.161.21.101a.558.558 0 00.156-.126c.364-.44.612-.964.718-1.525.03-.149-.067-.321-.091-.484-.016-.112-.041-.24-.002-.337.067-.169.215-.199.31-.048.274.434.654.34 1.041.256.178-.038.352-.093.531-.128a.697.697 0 01.298-.007.274.274 0 01.148.165c.01.03-.066.119-.118.137-.299.102-.601.204-.907.281a2.28 2.28 0 01-.54.053c-.11 0-.147.006-.159.133a2.932 2.932 0 01-1.021 1.984c-.282.248-.614.218-.909-.013-.207-.162-.195-.386-.201-.611M8.991 10.396a.344.344 0 00-.087.05c-.569.576-.965 1.251-1.117 2.05a.88.88 0 00.07.501c.101.217.267.228.408.031.347-.483.694-.971.85-1.556.096-.361.179-.732-.124-1.076m-1.743 1.903c.015-.503.367-1.083.777-1.636.145-.196.304-.382.475-.554.214-.214.476-.331.772-.186a.65.65 0 01.271.278c.159.323.205.364.572.36.203-.002.406-.007.608-.001a.544.544 0 01.214.049c.05.023.113.075.118.119.004.036-.063.105-.111.118-.315.088-.631.179-.953.239-.132.025-.195.05-.231.19-.173.678-.395 1.338-.87 1.876-.138.157-.29.302-.454.433-.172.135-.367.142-.571.038-.465-.237-.62-.506-.616-1.323M22.618 8.931c.152.25.274.515.286.816.002.049-.082.102-.127.153-.053-.051-.135-.094-.154-.156a3.342 3.342 0 01-.105-.506 2.06 2.06 0 01-.003-.294l.103-.013M21.566 6.535l-.045-.312c.046.005.11-.007.136.019.096.095.093.196-.091.293"/></g></svg>
