<svg xmlns="http://www.w3.org/2000/svg" width="351.633" height="363.806" viewBox="0 0 351.633 363.806"><defs><style>.a{fill:#fff;}</style></defs><g transform="translate(0 0)"><path class="a" d="M10.717,113.477c4.9,1.3,5.429,2.13,5.679,6.5.285,5,1.324,10,1.231,14.985a266.837,266.837,0,0,1-1.591,28.768c-1.029,8.067-3.262,16.014-5.365,23.908-6.92,26-21.773,47.049-41.2,65.186-3.9,3.639-7.342,7.9-11.653,10.946-9.168,6.473-18.571,12.677-28.249,18.351-9.265,5.434-18.963,10.14-28.561,14.99a70.647,70.647,0,0,1-8.549,3.1,12.253,12.253,0,0,0-1.756.482c-8.281,4.44-17.5,5.5-26.475,7.5-14.8,3.3-29.879,3.646-44.891,4.51a52.735,52.735,0,0,1-26.318-5.04c-10.132-4.927-20.377-9.738-30.009-15.534a173.917,173.917,0,0,1-24.143-17.442,283.075,283.075,0,0,1-35.309-37.072c-4.193-5.225-7.332-11.363-10.507-17.322-4.8-9-10.025-17.734-13.187-27.647-2.08-6.531-4.523-12.879-5.364-19.722a5.109,5.109,0,0,0-.417-1.471c-3.724-8.152-4.71-16.9-5.609-25.669-.854-8.349-2.11-16.683-2.422-25.052a123.415,123.415,0,0,1,1.154-19.89c1.239-9.84,2.7-19.677,4.655-29.4,2.318-11.538,8.823-21.316,14.3-31.505,13.206-24.557,31.762-44.317,54.554-60.081a174.845,174.845,0,0,1,24.527-14.043c6.316-2.992,13.354-4.463,20.079-6.583,5.944-1.876,11.785-4.338,17.874-5.434,10.564-1.9,21.251-3.324,31.947-4.228a133.533,133.533,0,0,1,23.646-.087c31.093,2.922,59.654,12.38,84.623,32.087,9.051,7.143,18.189,14.076,25.6,22.839,6.476,7.655,12.14,16.011,17.927,24.223.967,1.374.742,3.584,1.066,5.407-.295.135-.587.27-.882.407-2-1.848-4.058-3.631-5.984-5.554-5.429-5.427-11.278-10.522-16.091-16.456-7.947-9.8-18.284-16.81-27.909-24.532A89.445,89.445,0,0,0-86.721-25.766a289.908,289.908,0,0,0-39.924-11.875,133.138,133.138,0,0,0-31.131-3.1c-6.284.12-12.68-.317-18.906.42-6.661.784-13.176,2.81-19.755,4.3-4.073.924-8.219,1.618-12.195,2.855a104.57,104.57,0,0,0-14.046,5.247c-7.392,3.529-14.56,7.532-21.828,11.326-9.55,4.98-18.279,10.8-24.585,19.957-3.224,4.68-7.822,8.394-11.583,12.732-2.323,2.677-4.246,5.7-6.334,8.581-.474.657-.889,1.356-1.321,2.04-2.075,3.279-4.718,6.336-6.119,9.88-5,12.645-10.889,25.019-13.386,38.518-1.281,6.94-2.258,13.943-3.127,20.949-.285,2.3.579,4.755.237,7.04a23.853,23.853,0,0,1-2.493,8.329c-1.8,3.109-2.442,5.884-.28,8.831s1.593,5.884-.165,8.546a8.536,8.536,0,0,0-.822,8.729,21.041,21.041,0,0,1,1.541,13.179,5.807,5.807,0,0,0,1.723,4.883c3.189,2.293,3.517,5.544,4.208,8.841.707,3.369,1.613,6.7,2.432,10.04.05.2.192.437.132.594-2.155,5.539,2.642,10.165,2.038,15.594-.22,1.973.712,4.276,1.668,6.146,2.69,5.255,5.659,10.364,8.541,15.519.245.437.889.739.964,1.171.8,4.628,3.559,8.3,5.827,12.215.4.694.41,1.646.877,2.273,2.657,3.574,5.394,7.088,8.117,10.609a6.475,6.475,0,0,0,1.246,1.359c2.657,1.918,1.039,5.974,4.443,7.912,2.408,1.371,3.744,4.538,5.739,6.738a48.937,48.937,0,0,0,6.908,6.818,89.088,89.088,0,0,0,11.523,7.09,101.388,101.388,0,0,0,9.9,3.973,21.105,21.105,0,0,1,3.691,1.486c10.657,6.808,22.4,10.886,34.585,13.853,8.044,1.958,16.044,4.373,24.213,5.462,9.588,1.279,19.235,2.388,29.053,1.581,7.55-.617,15.179-.012,22.4-3.044a9.888,9.888,0,0,1,4.213-.759,14.655,14.655,0,0,0,10.876-3.324,6.377,6.377,0,0,1,2.812-1.131c12.769-2.6,24-8.626,34.585-15.9,7.44-5.115,14.548-10.714,21.768-16.143a30.606,30.606,0,0,0,3.644-3.3c3.684-3.839,7.417-7.642,10.929-11.636a81.9,81.9,0,0,0,5.4-7.392c.639-.914.956-2.075,1.666-2.915,6.543-7.735,10.4-16.833,13.888-26.211A86.4,86.4,0,0,1-6.393,190.31c2.213-3.836,4.568-7.5,4.743-12.16.05-1.294,1.026-2.65,1.833-3.8a47.243,47.243,0,0,0,8.534-24.033c.292-3.779-.539-7.957.812-11.276,3.441-8.461.135-16.97,1.189-25.569" transform="translate(334 51)"/><path class="a" d="M-220.84,62.879c-.065,3.569,1.541,4.75,3.9,3.606a16.084,16.084,0,0,0,3.794-2.58c10.087-9.266,21.813-16.923,28.648-29.392.8-1.454,2.467-2.855.934-4.168-.894-.769-3.239-.722-4.46-.107C-200.6,36.6-211.542,44.883-218.532,57.5a49.3,49.3,0,0,0-2.308,5.377m25.232-4.121c-3.044,2.775-5.837,5.6-8.928,8.057a107.758,107.758,0,0,1-9.353,6.388c-3.2,2.03-6.3,1.576-8.866-1.141-2.72-2.882-5.9-2.939-9.293-1.888-6.641,2.06-13.221,4.323-19.895,6.264a57.538,57.538,0,0,1-9.348,1.723c-4.248.5-9.433-2.687-10.794-6.681a7.172,7.172,0,0,1,.345-3.849c4.363-15.864,11.181-30.751,18.234-45.543,2.47-5.177,4.885-10.382,7.325-15.574,1.376-2.929,2.637-3.392,5.5-2.008.092.042.175.11.267.152,4.915,2.33,5.751,4.041,2.372,8.426-5.11,6.631-7.879,14.353-11.146,21.808-4.271,9.745-7.875,19.787-11.611,29.76-.514,1.376-.14,3.084-.18,4.64,1.471,0,3.049.362,4.391-.05,6.741-2.07,13.386-4.453,20.139-6.483,2.5-.752,5.2-.842,8.484-1.334,1.161-6.251,5.047-12.352,9.563-18.071A58.306,58.306,0,0,1-190.7,23.672c5.365-1.791,8.826-.447,12.138,4.286a6.3,6.3,0,0,0,3.064,2.17c2.782.907,3.207,1.7,1.618,4.116-2.368,3.6-4.873,7.113-7.118,10.784a41.347,41.347,0,0,0-6.074,19.463,18.453,18.453,0,0,0,1.546,7.7c1.059,2.58.25,3.3-2.1,3.646-3.771.549-5.777-.41-6.531-4.168-.807-4.031-.956-8.192-1.458-12.909" transform="translate(426.479 132.998)"/><path class="a" d="M-292.875,82.3c-2.123-.32-4.281-.5-6.366-.981-7.745-1.783-12.04-7.1-12.342-14.942a45.17,45.17,0,0,1,3.382-19.2c5.067-12.322,11.131-24.048,20.369-33.81,4.645-4.912,9.485-9.748,16.253-11.77a36.248,36.248,0,0,1,5.427-1c6.329-.872,9.885,3.162,12.839,7.737.787,1.216.7,3.434.217,4.937-1.244,3.891-2.877,7.66-4.463,11.433-1,2.383-4.046,2.954-7.595,1.568-2.647-1.034-3.806-3.107-2.73-5.567,1.349-3.079,3.1-5.984,4.473-9.053.4-.887.117-2.08.147-3.134a11.772,11.772,0,0,0-2.882.065c-5.08,1.374-8.793,4.763-12.115,8.609-10.729,12.422-18.836,26.323-23.351,42.177a25.633,25.633,0,0,0-.952,7.273c.085,6.184,5.2,9.583,10.979,7.385,7.392-2.815,13.054-8.077,18.439-13.6,2.1-2.148,4.42-3.159,7.143-2.42a7.75,7.75,0,0,1,3.8,2.947c.32.442-.7,2.275-1.521,3.044-4.77,4.505-9.5,9.081-14.563,13.241a22.652,22.652,0,0,1-14.59,5.062" transform="translate(367.513 128.083)"/><path class="a" d="M-232.873,69.9c.42-8.769,3.436-16.89,7.34-24.51,7.333-14.315,15.244-28.333,23.019-42.419,2.028-3.669,4.4-4.638,7.824-3.829,3.556.839,4.675,3.721,2.108,6.361-7.6,7.822-12.994,17.2-18.1,26.608-5.6,10.3-11.3,20.721-13.683,32.422a36.81,36.81,0,0,0-.382,7.914c.037,2.3,1.506,2.452,3.182,1.531a8.44,8.44,0,0,0,2.37-1.908,51.159,51.159,0,0,0,10.884-23.119c.462-2.255-1.009-4.863-1.374-7.34-.25-1.686-.627-3.631-.042-5.1,1.021-2.57,3.272-3.019,4.713-.729,4.143,6.578,9.91,5.16,15.771,3.884,2.695-.587,5.34-1.419,8.047-1.943a10.415,10.415,0,0,1,4.53-.1,4.165,4.165,0,0,1,2.238,2.5c.157.452-1,1.8-1.788,2.07-4.54,1.553-9.106,3.092-13.756,4.258a33.65,33.65,0,0,1-8.189.8c-1.658,0-2.225.092-2.4,2.018a44.45,44.45,0,0,1-15.484,30.084c-4.273,3.754-9.3,3.3-13.776-.2-3.132-2.45-2.957-5.846-3.044-9.258" transform="translate(485.432 125.693)"/><path class="a" d="M-263.7,16.985a5.8,5.8,0,0,0-1.316.762c-8.629,8.734-14.635,18.963-16.933,31.083a13.252,13.252,0,0,0,1.059,7.592c1.536,3.292,4.051,3.449,6.186.475,5.255-7.32,10.519-14.727,12.884-23.6,1.458-5.469,2.722-11.094-1.881-16.308m-26.413,28.848c.22-7.615,5.559-16.418,11.778-24.8a74.375,74.375,0,0,1,7.2-8.4c3.242-3.237,7.208-5.007,11.7-2.815a9.762,9.762,0,0,1,4.1,4.211c2.415,4.907,3.107,5.524,8.679,5.467,3.072-.032,6.149-.107,9.221-.027a8.4,8.4,0,0,1,3.244.749c.754.35,1.708,1.134,1.788,1.811.06.544-.967,1.583-1.681,1.783-4.785,1.334-9.575,2.715-14.45,3.621-2,.372-2.954.752-3.5,2.887-2.635,10.274-6,20.279-13.2,28.431a52.831,52.831,0,0,1-6.875,6.558c-2.615,2.055-5.564,2.153-8.659.579-7.045-3.584-9.4-7.66-9.343-20.054" transform="translate(399.716 140.616)"/><path class="a" d="M-195.85,3.214c2.3,3.794,4.148,7.807,4.333,12.372.03.747-1.244,1.548-1.918,2.325-.807-.779-2.045-1.424-2.335-2.363a51.391,51.391,0,0,1-1.593-7.672,30.839,30.839,0,0,1-.042-4.458c.522-.067,1.039-.137,1.556-.2" transform="translate(538.444 132.183)"/><path class="a" d="M-202.8-8.486q-.341-2.368-.682-4.738c.7.08,1.673-.1,2.068.29,1.449,1.439,1.4,2.977-1.386,4.448" transform="translate(529.447 107.568)"/></g></svg>